<svg id="compass"
  xmlns:svg="http://www.w3.org/2000/svg"
  xmlns="http://www.w3.org/2000/svg"
  version="1.1"
  x="0px"
  y="0px"
  viewBox="0 0 497.199 497.199"
  style="enable-background:new 0 0 497.199 497.199;"
  xml:space="preserve">
  <g>
    <g>
      <path d="m 305.99807,249.00449 c 0.26886,-38.19906 -56.18631,-172.499721 -56.18631,-172.499721 0,0 -58.34198,133.492681 -58.61084,171.691741 -0.22874,32.49919 24.49539,57.57383 56.99458,57.80257 32.4992,0.22874 57.57383,-24.49539 57.80257,-56.99459 z m -95.59863,-0.67286 c 0.1478,-20.99948 17.46944,-38.07799 38.46891,-37.93019 20.99948,0.14781 38.078,17.46844 37.9302,38.46792 -0.1478,20.99947 -17.46844,38.079 -38.46791,37.9312 -20.99949,-0.14781 -38.079,-17.46944 -37.9312,-38.46893 z" />
      <path d="M 497.19334,250.35019 C 498.16249,112.6536 388.04578,0.9758127 250.34918,0.00665674 112.65159,-0.96250591 0.97480965,109.15422 0.00565401,246.85081 -0.9635087,384.5484 109.15123,496.22417 246.84982,497.19334 384.54641,498.1625 496.22418,388.04778 497.19334,250.35019 Z M 19.105181,246.98524 C 19.993398,120.78837 124.01688,18.21796 250.21475,19.106184 376.41163,19.994401 478.98203,124.01889 478.09381,250.21576 477.20559,376.41363 373.18111,478.98303 246.98424,478.09482 120.78636,477.20659 18.216958,373.18311 19.105181,246.98524 Z" />
    </g>
  </g>
</svg>
